<svg width="103" height="54" viewBox="0 0 103 54" fill="none" xmlns="http://www.w3.org/2000/svg">
<g clip-path="url(#clip0_456_5)">
<path d="M13.1975 0.0728167C6.15368 0.762434 0.545019 6.56207 0.0382382 13.6638C-0.575009 22.2819 6.22182 29.495 14.6625 29.495V29.4865C18.8402 29.4736 22.886 27.6575 25.6754 24.4621C26.8082 23.1643 26.4292 21.1425 24.9216 20.3201C23.8356 19.729 22.4686 19.9346 21.6595 20.8684C19.8921 22.9073 17.3199 24.0681 14.6625 24.0809V24.0895C10.472 24.0895 6.92875 21.2882 5.77466 17.4546H25.4752C27.7962 17.4546 29.4826 15.5571 29.2441 13.2312C28.4393 5.33275 21.4167 -0.736734 13.1975 0.0728167ZM5.77466 12.0447C6.92875 8.20687 10.4762 5.40985 14.6625 5.40985C18.8487 5.40985 22.3962 8.21115 23.5503 12.0447H5.77466ZM40.2996 13.1456C41.4282 13.1456 42.4162 12.426 42.825 11.368C43.3914 9.91164 44.307 8.63092 45.4739 7.6329C47.0922 6.24938 49.1875 5.40985 51.4786 5.40985C53.7698 5.40985 55.8608 6.2451 57.4833 7.6329C58.6502 8.63092 59.5658 9.91164 60.1322 11.368C60.541 12.426 61.5291 13.1456 62.6576 13.1456C64.557 13.1456 65.8431 11.2223 65.1617 9.44475C64.327 7.2731 62.9898 5.3456 61.2991 3.80788C58.6885 1.4392 55.2433 0 51.4701 0C47.6969 0 44.2517 1.4392 41.6539 3.8036C39.9632 5.34132 38.6302 7.26454 37.7913 9.44047C37.1056 11.2223 38.396 13.1413 40.2954 13.1413L40.2996 13.1456ZM62.6576 16.3409C61.5291 16.3409 60.541 17.0605 60.1322 18.1228C59.5701 19.5834 58.6502 20.8641 57.4833 21.8621C55.865 23.2499 53.7655 24.0895 51.4744 24.0895C49.1832 24.0895 47.0879 23.2499 45.4654 21.8621C44.2985 20.8641 43.3829 19.5791 42.8165 18.1228C42.4077 17.0605 41.4197 16.3409 40.2911 16.3409C38.3918 16.3409 37.1056 18.2599 37.787 20.0417C38.6217 22.2219 39.9547 24.1494 41.6496 25.6914C44.2517 28.0558 47.6969 29.4993 51.4701 29.4993C55.2433 29.4993 58.6928 28.0558 61.2948 25.6914C62.9855 24.1537 64.3227 22.2219 65.1574 20.0417C65.8388 18.2599 64.5527 16.3409 62.6533 16.3409H62.6576ZM98.6987 4.32617C96.0455 1.65337 92.3788 0 88.3373 0C84.2959 0 80.6292 1.65337 77.976 4.32617C75.3229 6.99469 73.6748 10.6826 73.6748 14.7475V26.788C73.6748 28.2829 74.88 29.4908 76.362 29.4908C77.844 29.4908 79.0492 28.2786 79.0492 26.788V14.7475C79.0492 12.1732 80.0883 9.83882 81.7705 8.1469C83.4526 6.45499 85.7736 5.40985 88.3331 5.40985C90.8925 5.40985 93.2135 6.45499 94.8957 8.1469C96.5778 9.83882 97.617 12.1732 97.617 14.7475V26.7837C97.617 28.2786 98.8222 29.4865 100.304 29.4865C101.786 29.4865 102.991 28.2743 102.991 26.7837V14.7475C102.991 10.6826 101.348 6.99469 98.6901 4.32617H98.6987Z" fill="#00BFB8"/>
<path d="M2.35503 41.9251C2.74683 41.1883 3.28768 40.6144 3.97332 40.2117C4.65897 39.8048 5.42552 39.6035 6.26874 39.6035C7.11195 39.6035 7.81889 39.7834 8.43214 40.1432C9.04539 40.503 9.50106 40.957 9.79917 41.501V39.762H11.3919V49.3053H9.79917V47.5277C9.48829 48.0845 9.02409 48.5471 8.40659 48.9112C7.78908 49.2753 7.06937 49.4595 6.25171 49.4595C5.43404 49.4595 4.64619 49.2496 3.9648 48.8341C3.28342 48.4186 2.74683 47.8318 2.35503 47.0737C1.96323 46.3198 1.76733 45.4588 1.76733 44.4951C1.76733 43.5313 1.96323 42.6661 2.35503 41.9251ZM9.36479 42.6318C9.0752 42.0964 8.68766 41.6895 8.19791 41.4025C7.70817 41.1198 7.16732 40.9742 6.57962 40.9742C5.99193 40.9742 5.45534 41.1155 4.96985 41.3939C4.48436 41.6724 4.09682 42.0793 3.81149 42.6147C3.5219 43.1501 3.37711 43.7755 3.37711 44.4951C3.37711 45.2147 3.5219 45.8615 3.81149 46.4012C4.10108 46.9409 4.48436 47.3521 4.96985 47.6391C5.45534 47.9218 5.99193 48.0674 6.57962 48.0674C7.16732 48.0674 7.70817 47.926 8.19791 47.6391C8.68766 47.3564 9.07946 46.9409 9.36479 46.4012C9.65438 45.8615 9.79917 45.2318 9.79917 44.5122C9.79917 43.7926 9.65438 43.1672 9.36479 42.6318Z" fill="#00BFB8"/>
<path d="M22.656 36.4165V49.3008H21.0803V36.4165H22.656Z" fill="#00BFB8"/>
<path d="M32.4254 37.8945C32.2167 37.6846 32.1145 37.4319 32.1145 37.1277C32.1145 36.8236 32.2167 36.5709 32.4254 36.361C32.6341 36.1511 32.8853 36.0483 33.1877 36.0483C33.49 36.0483 33.72 36.1511 33.9244 36.361C34.1246 36.5709 34.2268 36.8236 34.2268 37.1277C34.2268 37.4319 34.1246 37.6846 33.9244 37.8945C33.7243 38.1043 33.4773 38.2071 33.1877 38.2071C32.8981 38.2071 32.6341 38.1043 32.4254 37.8945ZM33.95 39.7577V49.301H32.3743V39.7577H33.95Z" fill="#00BFB8"/>
<path d="M49.737 40.1388C50.3545 40.4986 50.8144 40.9527 51.1125 41.4966V39.7576H52.7053V49.5065C52.7053 50.376 52.5221 51.1513 52.1516 51.8323C51.7811 52.5134 51.253 53.0445 50.5674 53.4257C49.8818 53.8069 49.0811 53.9997 48.1698 53.9997C46.922 53.9997 45.8829 53.7041 45.0524 53.113C44.222 52.5219 43.7323 51.7124 43.5789 50.693H45.1376C45.3122 51.2712 45.6699 51.7424 46.2108 52.0936C46.7516 52.4491 47.4032 52.6247 48.1655 52.6247C49.03 52.6247 49.737 52.3506 50.2863 51.8066C50.8357 51.2626 51.1083 50.4959 51.1083 49.5065V47.5062C50.7974 48.063 50.3332 48.5299 49.7242 48.8982C49.1109 49.2709 48.3955 49.4551 47.5778 49.4551C46.7602 49.4551 45.9723 49.2452 45.2824 48.8297C44.5925 48.4142 44.0559 47.8274 43.6641 47.0693C43.2723 46.3154 43.0764 45.4544 43.0764 44.4907C43.0764 43.5269 43.2723 42.6617 43.6641 41.9207C44.0559 41.184 44.5968 40.61 45.2824 40.2074C45.968 39.8004 46.7346 39.5991 47.5778 39.5991C48.421 39.5991 49.1152 39.779 49.7327 40.1388H49.737ZM50.6824 42.6274C50.3928 42.092 50.0053 41.6851 49.5155 41.3981C49.0258 41.1154 48.4849 40.9698 47.8972 40.9698C47.3095 40.9698 46.7729 41.1111 46.2874 41.3896C45.802 41.668 45.4144 42.0749 45.1291 42.6103C44.8395 43.1457 44.6947 43.7711 44.6947 44.4907C44.6947 45.2103 44.8395 45.8571 45.1291 46.3968C45.4187 46.9365 45.802 47.3477 46.2874 47.6347C46.7729 47.9174 47.3095 48.063 47.8972 48.063C48.4849 48.063 49.0258 47.9216 49.5155 47.6347C50.0053 47.352 50.3971 46.9365 50.6824 46.3968C50.972 45.8571 51.1168 45.2274 51.1168 44.5078C51.1168 43.7882 50.972 43.1629 50.6824 42.6274Z" fill="#00BFB8"/>
<path d="M69.8251 40.6357C70.5405 41.3382 70.8982 42.3491 70.8982 43.6726V49.2966H69.3396V43.8996C69.3396 42.9487 69.1011 42.2206 68.6284 41.7151C68.1557 41.2097 67.5083 40.957 66.6907 40.957C65.873 40.957 65.2001 41.2183 64.7104 41.7408C64.2207 42.2634 63.9737 43.0215 63.9737 44.0238V49.3009H62.3979V39.7576H63.9737V41.1155C64.2845 40.6272 64.7104 40.2502 65.247 39.9847C65.7836 39.7191 66.3755 39.582 67.0229 39.582C68.177 39.582 69.1139 39.9333 69.8293 40.6357H69.8251Z" fill="#00BFB8"/>
<path d="M89.1594 45.1203H81.579C81.6386 46.0584 81.958 46.7951 82.5415 47.322C83.1249 47.8488 83.8318 48.1144 84.6623 48.1144C85.3437 48.1144 85.9101 47.9559 86.3658 47.6347C86.8214 47.3134 87.1408 46.8894 87.3282 46.3539H89.0232C88.7676 47.2706 88.2609 48.0159 87.4986 48.5898C86.7363 49.1638 85.7908 49.4508 84.658 49.4508C83.7594 49.4508 82.9546 49.2495 82.2434 48.8426C81.5322 48.4356 80.9785 47.8574 80.574 47.1121C80.1694 46.3625 79.9692 45.4973 79.9692 44.5078C79.9692 43.5184 80.1651 42.6574 80.5569 41.9121C80.9487 41.1711 81.5024 40.5971 82.2093 40.1988C82.9205 39.7962 83.7339 39.5991 84.658 39.5991C85.5822 39.5991 86.353 39.7962 87.0471 40.1902C87.7413 40.5843 88.2736 41.1283 88.6484 41.8179C89.0232 42.5075 89.2105 43.2871 89.2105 44.1609C89.2105 44.465 89.1935 44.782 89.1594 45.1203ZM87.1877 42.2719C86.9236 41.835 86.5616 41.5052 86.106 41.2782C85.6503 41.0512 85.1435 40.9398 84.5899 40.9398C83.7935 40.9398 83.1164 41.1968 82.5542 41.7065C81.9964 42.2162 81.6727 42.9273 81.5918 43.8311H87.5795C87.5795 43.2271 87.4474 42.7088 87.1834 42.2719H87.1877Z" fill="#00BFB8"/>
<path d="M101.118 40.0361C101.633 39.7362 102.259 39.582 102.996 39.582V41.2183H102.578C100.811 41.2183 99.9295 42.182 99.9295 44.1095V49.2966H98.3538V39.7534H99.9295V41.3039C100.206 40.7599 100.602 40.3359 101.113 40.0318L101.118 40.0361Z" fill="#00BFB8"/>
</g>
<defs>
<clipPath id="clip0_456_5">
<rect width="103" height="54" fill="white"/>
</clipPath>
</defs>
</svg>
